<mxfile host="app.diagrams.net" modified="2023-10-24T16:44:21.235Z" agent="Mozilla/5.0 (Macintosh; Intel Mac OS X 10_15_7) AppleWebKit/537.36 (KHTML, like Gecko) Chrome/118.0.0.0 Safari/537.36" etag="4_DVX8Xmua8SevCt4Uuk" version="22.0.6" type="github">
  <diagram name="Page-1" id="b98fa263-6416-c6ec-5b7d-78bf54ef71d0">
    <mxGraphModel dx="1770" dy="1201" grid="1" gridSize="10" guides="1" tooltips="1" connect="1" arrows="1" fold="1" page="1" pageScale="1.5" pageWidth="1169" pageHeight="826" background="none" math="0" shadow="0">
      <root>
        <mxCell id="0" style=";html=1;" />
        <mxCell id="1" style=";html=1;" parent="0" />
        <mxCell id="303ed1de8c2c98b4-2" value="Auxiliary Controller" style="whiteSpace=wrap;html=1;rounded=1;shadow=1;strokeWidth=1;fontSize=16;align=center;fillColor=#f5f5f5;strokeColor=#666666;" parent="1" vertex="1">
          <mxGeometry x="470" y="40" width="242" height="150" as="geometry" />
        </mxCell>
        <mxCell id="303ed1de8c2c98b4-72" value="Main Controller" style="whiteSpace=wrap;html=1;rounded=1;shadow=1;strokeWidth=1;fontSize=16;align=center;fillColor=#f5f5f5;strokeColor=#666666;" parent="1" vertex="1">
          <mxGeometry x="40" y="40" width="242" height="150" as="geometry" />
        </mxCell>
        <mxCell id="-xvDf2_KQ9dmwejqwD8W-4" value="House Light Trim 1" style="whiteSpace=wrap;html=1;rounded=1;shadow=1;strokeWidth=1;fontSize=16;align=center;fillColor=#f5f5f5;strokeColor=#666666;" vertex="1" parent="1">
          <mxGeometry x="141" y="240" width="180" height="40" as="geometry" />
        </mxCell>
        <mxCell id="-xvDf2_KQ9dmwejqwD8W-5" value="House Light Trim 2" style="whiteSpace=wrap;html=1;rounded=1;shadow=1;strokeWidth=1;fontSize=16;align=center;fillColor=#f5f5f5;strokeColor=#666666;" vertex="1" parent="1">
          <mxGeometry x="141" y="290" width="180" height="40" as="geometry" />
        </mxCell>
        <mxCell id="-xvDf2_KQ9dmwejqwD8W-6" value="House Light Trim 3" style="whiteSpace=wrap;html=1;rounded=1;shadow=1;strokeWidth=1;fontSize=16;align=center;fillColor=#f5f5f5;strokeColor=#666666;" vertex="1" parent="1">
          <mxGeometry x="141" y="340" width="180" height="40" as="geometry" />
        </mxCell>
        <mxCell id="-xvDf2_KQ9dmwejqwD8W-26" style="edgeStyle=orthogonalEdgeStyle;rounded=0;orthogonalLoop=1;jettySize=auto;html=1;exitX=0.5;exitY=1;exitDx=0;exitDy=0;entryX=0;entryY=0.5;entryDx=0;entryDy=0;" edge="1" parent="1" source="-xvDf2_KQ9dmwejqwD8W-10" target="-xvDf2_KQ9dmwejqwD8W-5">
          <mxGeometry relative="1" as="geometry" />
        </mxCell>
        <mxCell id="-xvDf2_KQ9dmwejqwD8W-10" value="" style="ellipse;whiteSpace=wrap;html=1;aspect=fixed;" vertex="1" parent="1">
          <mxGeometry x="101" y="150" width="10" height="10" as="geometry" />
        </mxCell>
        <mxCell id="-xvDf2_KQ9dmwejqwD8W-27" style="edgeStyle=orthogonalEdgeStyle;rounded=0;orthogonalLoop=1;jettySize=auto;html=1;exitX=0.5;exitY=1;exitDx=0;exitDy=0;entryX=0;entryY=0.5;entryDx=0;entryDy=0;" edge="1" parent="1" source="-xvDf2_KQ9dmwejqwD8W-11" target="-xvDf2_KQ9dmwejqwD8W-6">
          <mxGeometry relative="1" as="geometry" />
        </mxCell>
        <mxCell id="-xvDf2_KQ9dmwejqwD8W-11" value="" style="ellipse;whiteSpace=wrap;html=1;aspect=fixed;" vertex="1" parent="1">
          <mxGeometry x="116" y="169" width="10" height="10" as="geometry" />
        </mxCell>
        <mxCell id="-xvDf2_KQ9dmwejqwD8W-12" value="" style="ellipse;whiteSpace=wrap;html=1;aspect=fixed;" vertex="1" parent="1">
          <mxGeometry x="131" y="150" width="10" height="10" as="geometry" />
        </mxCell>
        <mxCell id="-xvDf2_KQ9dmwejqwD8W-13" value="" style="ellipse;whiteSpace=wrap;html=1;aspect=fixed;" vertex="1" parent="1">
          <mxGeometry x="146" y="169" width="10" height="10" as="geometry" />
        </mxCell>
        <mxCell id="-xvDf2_KQ9dmwejqwD8W-14" value="" style="ellipse;whiteSpace=wrap;html=1;aspect=fixed;" vertex="1" parent="1">
          <mxGeometry x="161" y="150" width="10" height="10" as="geometry" />
        </mxCell>
        <mxCell id="-xvDf2_KQ9dmwejqwD8W-25" style="edgeStyle=orthogonalEdgeStyle;rounded=0;orthogonalLoop=1;jettySize=auto;html=1;exitX=0.5;exitY=1;exitDx=0;exitDy=0;entryX=0;entryY=0.5;entryDx=0;entryDy=0;" edge="1" parent="1" source="-xvDf2_KQ9dmwejqwD8W-15" target="-xvDf2_KQ9dmwejqwD8W-4">
          <mxGeometry relative="1" as="geometry" />
        </mxCell>
        <mxCell id="-xvDf2_KQ9dmwejqwD8W-15" value="" style="ellipse;whiteSpace=wrap;html=1;aspect=fixed;" vertex="1" parent="1">
          <mxGeometry x="86" y="169" width="10" height="10" as="geometry" />
        </mxCell>
        <mxCell id="-xvDf2_KQ9dmwejqwD8W-16" value="" style="ellipse;whiteSpace=wrap;html=1;aspect=fixed;" vertex="1" parent="1">
          <mxGeometry x="191" y="150" width="10" height="10" as="geometry" />
        </mxCell>
        <mxCell id="-xvDf2_KQ9dmwejqwD8W-17" value="" style="ellipse;whiteSpace=wrap;html=1;aspect=fixed;" vertex="1" parent="1">
          <mxGeometry x="176" y="169" width="10" height="10" as="geometry" />
        </mxCell>
        <mxCell id="-xvDf2_KQ9dmwejqwD8W-18" value="" style="ellipse;whiteSpace=wrap;html=1;aspect=fixed;" vertex="1" parent="1">
          <mxGeometry x="221" y="150" width="10" height="10" as="geometry" />
        </mxCell>
        <mxCell id="-xvDf2_KQ9dmwejqwD8W-19" value="" style="ellipse;whiteSpace=wrap;html=1;aspect=fixed;" vertex="1" parent="1">
          <mxGeometry x="206" y="169" width="10" height="10" as="geometry" />
        </mxCell>
        <mxCell id="-xvDf2_KQ9dmwejqwD8W-20" value="" style="ellipse;whiteSpace=wrap;html=1;aspect=fixed;" vertex="1" parent="1">
          <mxGeometry x="251" y="150" width="10" height="10" as="geometry" />
        </mxCell>
        <mxCell id="-xvDf2_KQ9dmwejqwD8W-21" value="" style="ellipse;whiteSpace=wrap;html=1;aspect=fixed;" vertex="1" parent="1">
          <mxGeometry x="236" y="169" width="10" height="10" as="geometry" />
        </mxCell>
        <mxCell id="-xvDf2_KQ9dmwejqwD8W-30" style="edgeStyle=orthogonalEdgeStyle;rounded=0;orthogonalLoop=1;jettySize=auto;html=1;exitX=1;exitY=0.5;exitDx=0;exitDy=0;entryX=0;entryY=0.5;entryDx=0;entryDy=0;" edge="1" parent="1" source="-xvDf2_KQ9dmwejqwD8W-28" target="-xvDf2_KQ9dmwejqwD8W-29">
          <mxGeometry relative="1" as="geometry" />
        </mxCell>
        <mxCell id="-xvDf2_KQ9dmwejqwD8W-31" value="Ethernet" style="edgeLabel;html=1;align=center;verticalAlign=middle;resizable=0;points=[];" vertex="1" connectable="0" parent="-xvDf2_KQ9dmwejqwD8W-30">
          <mxGeometry x="-0.0308" relative="1" as="geometry">
            <mxPoint as="offset" />
          </mxGeometry>
        </mxCell>
        <mxCell id="-xvDf2_KQ9dmwejqwD8W-28" value="" style="whiteSpace=wrap;html=1;aspect=fixed;" vertex="1" parent="1">
          <mxGeometry x="251" y="50" width="20" height="20" as="geometry" />
        </mxCell>
        <mxCell id="-xvDf2_KQ9dmwejqwD8W-29" value="" style="whiteSpace=wrap;html=1;aspect=fixed;" vertex="1" parent="1">
          <mxGeometry x="480" y="50" width="20" height="20" as="geometry" />
        </mxCell>
      </root>
    </mxGraphModel>
  </diagram>
</mxfile>
